<mxfile host="app.diagrams.net" agent="Mozilla/5.0 (Macintosh; Intel Mac OS X 10_15_7) AppleWebKit/537.36 (KHTML, like Gecko) Chrome/126.0.0.0 Safari/537.36" version="24.7.7">
  <diagram name="Page-1" id="3cnqwz3TAFGl8TdH6URT">
    <mxGraphModel dx="811" dy="808" grid="1" gridSize="10" guides="1" tooltips="1" connect="1" arrows="1" fold="1" page="1" pageScale="1" pageWidth="850" pageHeight="1100" math="0" shadow="0">
      <root>
        <mxCell id="0" />
        <mxCell id="1" parent="0" />
        <mxCell id="WD5q0SkmQRm5SO6bqdjp-20" value="&lt;span style=&quot;background-color: rgb(5, 130, 255);&quot;&gt;Student&lt;/span&gt;" style="swimlane;childLayout=stackLayout;horizontal=1;startSize=50;horizontalStack=0;rounded=1;fontSize=14;fontStyle=0;strokeWidth=2;resizeParent=0;resizeLast=1;shadow=0;dashed=0;align=center;arcSize=4;whiteSpace=wrap;html=1;fillColor=#dae8fc;strokeColor=#6c8ebf;" parent="1" vertex="1">
          <mxGeometry x="160" y="100" width="160" height="120" as="geometry" />
        </mxCell>
        <mxCell id="WD5q0SkmQRm5SO6bqdjp-21" value="name&lt;div&gt;email&lt;/div&gt;&lt;div&gt;dateRegistered&lt;/div&gt;" style="align=left;strokeColor=none;fillColor=none;spacingLeft=4;fontSize=12;verticalAlign=top;resizable=0;rotatable=0;part=1;html=1;" parent="WD5q0SkmQRm5SO6bqdjp-20" vertex="1">
          <mxGeometry y="50" width="160" height="70" as="geometry" />
        </mxCell>
        <mxCell id="WD5q0SkmQRm5SO6bqdjp-22" value="&lt;span style=&quot;background-color: rgb(5, 130, 255);&quot;&gt;Course&lt;/span&gt;" style="swimlane;childLayout=stackLayout;horizontal=1;startSize=50;horizontalStack=0;rounded=1;fontSize=14;fontStyle=0;strokeWidth=2;resizeParent=0;resizeLast=1;shadow=0;dashed=0;align=center;arcSize=4;whiteSpace=wrap;html=1;fillColor=#dae8fc;strokeColor=#6c8ebf;" parent="1" vertex="1">
          <mxGeometry x="480" y="100" width="160" height="120" as="geometry" />
        </mxCell>
        <mxCell id="WD5q0SkmQRm5SO6bqdjp-23" value="Title&lt;div&gt;Price&lt;/div&gt;&lt;div&gt;Instructor&lt;/div&gt;&lt;div&gt;Tags&lt;/div&gt;" style="align=left;strokeColor=none;fillColor=none;spacingLeft=4;fontSize=12;verticalAlign=top;resizable=0;rotatable=0;part=1;html=1;" parent="WD5q0SkmQRm5SO6bqdjp-22" vertex="1">
          <mxGeometry y="50" width="160" height="70" as="geometry" />
        </mxCell>
        <mxCell id="WD5q0SkmQRm5SO6bqdjp-27" value="" style="edgeStyle=entityRelationEdgeStyle;fontSize=12;html=1;endArrow=ERmany;startArrow=ERmany;rounded=0;entryX=-0.01;entryY=0.146;entryDx=0;entryDy=0;entryPerimeter=0;" parent="1" target="WD5q0SkmQRm5SO6bqdjp-23" edge="1">
          <mxGeometry width="100" height="100" relative="1" as="geometry">
            <mxPoint x="320" y="170" as="sourcePoint" />
            <mxPoint x="490" y="130" as="targetPoint" />
            <Array as="points">
              <mxPoint x="190" y="-60" />
              <mxPoint x="160" y="-50" />
              <mxPoint x="190" y="-50" />
            </Array>
          </mxGeometry>
        </mxCell>
        <mxCell id="WD5q0SkmQRm5SO6bqdjp-28" value="enrolls" style="edgeLabel;html=1;align=center;verticalAlign=middle;resizable=0;points=[];" parent="WD5q0SkmQRm5SO6bqdjp-27" vertex="1" connectable="0">
          <mxGeometry x="-0.1291" y="2" relative="1" as="geometry">
            <mxPoint as="offset" />
          </mxGeometry>
        </mxCell>
        <mxCell id="WD5q0SkmQRm5SO6bqdjp-29" value="&lt;span style=&quot;background-color: rgb(5, 130, 255);&quot;&gt;Student&lt;/span&gt;" style="swimlane;childLayout=stackLayout;horizontal=1;startSize=50;horizontalStack=0;rounded=1;fontSize=14;fontStyle=0;strokeWidth=2;resizeParent=0;resizeLast=1;shadow=0;dashed=0;align=center;arcSize=4;whiteSpace=wrap;html=1;fillColor=#dae8fc;strokeColor=#6c8ebf;" parent="1" vertex="1">
          <mxGeometry x="60" y="360" width="160" height="120" as="geometry" />
        </mxCell>
        <mxCell id="WD5q0SkmQRm5SO6bqdjp-30" value="&lt;div&gt;firstName (STRING)&lt;/div&gt;&lt;div&gt;lastName (STRING)&lt;/div&gt;&lt;div&gt;email (STRING)&lt;/div&gt;&lt;div&gt;dateRegistered (dateTime)&lt;/div&gt;" style="align=left;strokeColor=none;fillColor=none;spacingLeft=4;fontSize=12;verticalAlign=top;resizable=0;rotatable=0;part=1;html=1;" parent="WD5q0SkmQRm5SO6bqdjp-29" vertex="1">
          <mxGeometry y="50" width="160" height="70" as="geometry" />
        </mxCell>
        <mxCell id="WD5q0SkmQRm5SO6bqdjp-31" value="&lt;span style=&quot;background-color: rgb(5, 130, 255);&quot;&gt;Course&lt;/span&gt;" style="swimlane;childLayout=stackLayout;horizontal=1;startSize=50;horizontalStack=0;rounded=1;fontSize=14;fontStyle=0;strokeWidth=2;resizeParent=0;resizeLast=1;shadow=0;dashed=0;align=center;arcSize=4;whiteSpace=wrap;html=1;fillColor=#dae8fc;strokeColor=#6c8ebf;" parent="1" vertex="1">
          <mxGeometry x="650" y="360" width="160" height="120" as="geometry" />
        </mxCell>
        <mxCell id="WD5q0SkmQRm5SO6bqdjp-32" value="Title&lt;div&gt;Price&lt;/div&gt;&lt;div&gt;Instructor&lt;/div&gt;&lt;div&gt;Tags&lt;/div&gt;" style="align=left;strokeColor=none;fillColor=none;spacingLeft=4;fontSize=12;verticalAlign=top;resizable=0;rotatable=0;part=1;html=1;" parent="WD5q0SkmQRm5SO6bqdjp-31" vertex="1">
          <mxGeometry y="50" width="160" height="70" as="geometry" />
        </mxCell>
        <mxCell id="WD5q0SkmQRm5SO6bqdjp-35" value="&lt;span style=&quot;background-color: rgb(5, 130, 255);&quot;&gt;Enrollment&lt;/span&gt;" style="swimlane;childLayout=stackLayout;horizontal=1;startSize=50;horizontalStack=0;rounded=1;fontSize=14;fontStyle=0;strokeWidth=2;resizeParent=0;resizeLast=1;shadow=0;dashed=0;align=center;arcSize=4;whiteSpace=wrap;html=1;fillColor=#dae8fc;strokeColor=#6c8ebf;" parent="1" vertex="1">
          <mxGeometry x="330" y="360" width="160" height="120" as="geometry" />
        </mxCell>
        <mxCell id="WD5q0SkmQRm5SO6bqdjp-36" value="date (dateTime)&lt;div&gt;price (float)&lt;/div&gt;&lt;div&gt;&lt;br&gt;&lt;/div&gt;" style="align=left;strokeColor=none;fillColor=none;spacingLeft=4;fontSize=12;verticalAlign=top;resizable=0;rotatable=0;part=1;html=1;" parent="WD5q0SkmQRm5SO6bqdjp-35" vertex="1">
          <mxGeometry y="50" width="160" height="70" as="geometry" />
        </mxCell>
        <mxCell id="WD5q0SkmQRm5SO6bqdjp-37" value="" style="edgeStyle=entityRelationEdgeStyle;fontSize=12;html=1;endArrow=ERoneToMany;rounded=0;exitX=1;exitY=0.25;exitDx=0;exitDy=0;entryX=0;entryY=0.25;entryDx=0;entryDy=0;" parent="1" edge="1" target="WD5q0SkmQRm5SO6bqdjp-36" source="WD5q0SkmQRm5SO6bqdjp-30">
          <mxGeometry width="100" height="100" relative="1" as="geometry">
            <mxPoint x="360" y="390" as="sourcePoint" />
            <mxPoint x="360" y="610" as="targetPoint" />
            <Array as="points">
              <mxPoint x="-275" y="740" />
              <mxPoint x="205" y="740" />
              <mxPoint x="190" y="760" />
              <mxPoint x="190" y="690" />
              <mxPoint x="185" y="800" />
              <mxPoint x="185" y="810" />
            </Array>
          </mxGeometry>
        </mxCell>
        <mxCell id="WD5q0SkmQRm5SO6bqdjp-38" value="" style="edgeStyle=entityRelationEdgeStyle;fontSize=12;html=1;endArrow=ERoneToMany;rounded=0;entryX=1;entryY=0.25;entryDx=0;entryDy=0;exitX=0;exitY=0.25;exitDx=0;exitDy=0;" parent="1" source="WD5q0SkmQRm5SO6bqdjp-32" target="WD5q0SkmQRm5SO6bqdjp-36" edge="1">
          <mxGeometry width="100" height="100" relative="1" as="geometry">
            <mxPoint x="690" y="430" as="sourcePoint" />
            <mxPoint x="530" y="430" as="targetPoint" />
            <Array as="points">
              <mxPoint x="790" y="360" />
              <mxPoint x="710" y="510.5" />
              <mxPoint x="740" y="370" />
              <mxPoint x="640" y="430" />
              <mxPoint x="620" y="400" />
              <mxPoint x="760" y="480" />
              <mxPoint x="125" y="710" />
              <mxPoint x="605" y="710" />
              <mxPoint x="690" y="590" />
              <mxPoint x="590" y="730" />
              <mxPoint x="590" y="660" />
              <mxPoint x="585" y="770" />
              <mxPoint x="585" y="780" />
            </Array>
          </mxGeometry>
        </mxCell>
        <mxCell id="WD5q0SkmQRm5SO6bqdjp-39" value="CONCEPTUAL MODEL" style="text;html=1;align=center;verticalAlign=middle;resizable=0;points=[];autosize=1;strokeColor=#9673a6;fillColor=#e1d5e7;" parent="1" vertex="1">
          <mxGeometry x="320" y="50" width="150" height="30" as="geometry" />
        </mxCell>
        <mxCell id="WD5q0SkmQRm5SO6bqdjp-41" value="LOGICAL MODEL" style="text;html=1;align=center;verticalAlign=middle;resizable=0;points=[];autosize=1;strokeColor=#d79b00;fillColor=#ffe6cc;" parent="1" vertex="1">
          <mxGeometry x="335" y="280" width="120" height="30" as="geometry" />
        </mxCell>
      </root>
    </mxGraphModel>
  </diagram>
</mxfile>
